<svg width="103" height="161" viewBox="0 0 103 161" fill="none" xmlns="http://www.w3.org/2000/svg">
<path fill-rule="evenodd" clip-rule="evenodd" d="M42.2305 0.913C41.9175 1.415 40.0726 5.898 38.1318 10.875C34.864 19.253 34.6025 20.744 34.6025 30.962V42H32.078C29.7272 42 29.5535 41.662 29.5535 37.077C29.5535 31.569 26.206 26.389 22.2768 25.815C18.9101 25.324 19.0394 23.332 22.4838 22.65L25.591 22.035L25.3002 12.767L25.0093 3.5H15.9211H6.83288L6.54206 12.767L6.25123 22.035L9.31902 22.642C11.3255 23.04 12.3868 23.852 12.3868 24.99C12.3868 27.793 16.115 31.688 19.4241 32.344C22.2839 32.91 22.4848 33.243 22.4848 37.42V41.89L17.6883 42.195C12.9755 42.495 12.8432 42.596 10.1158 48C8.5031 51.193 6.95911 56.436 6.43199 60.5C5.93214 64.35 4.09631 73.057 2.35137 79.849C-1.47881 94.76 -1.3839 95 8.37182 95H15.2183L15.5697 108.25C15.7626 115.537 16.2887 122.063 16.738 122.75C17.3056 123.619 20.7722 124 28.0983 124H38.6417V138.975V153.949V157.5L40.3922 160.901H48.4706L59.0735 161H67.6569L76.6901 160.901H103V159.5V157.5V156.5V156V155.5V155V154.875V154.5V153.5V153.75V154.5V154.75V155V154.5V154V153.5V152.75V152.5L102.054 105.25C101.746 56.949 101.722 56.447 99.4046 50.749C96.6347 43.943 94.8989 42 91.5847 42C89.5368 42 89.1319 41.508 89.1319 39.023C89.1319 37.016 89.8923 35.553 91.4656 34.532C95.4795 31.927 98.2201 25.859 98.2201 19.574C98.2201 7.019 90.0286 -0.608 77.399 0.188C72.1884 0.517 70.3354 1.138 67.206 3.603C57.208 11.48 56.2436 24.112 64.9471 33.173C67.2585 35.579 68.9358 38.308 68.9358 39.663C68.9358 41.873 68.5784 42 62.3721 42H55.8084L55.8124 31.25C55.8175 20.981 55.6317 20.041 51.6621 10.25C48.0581 1.358 47.1957 0 45.1539 0C43.8594 0 42.5436 0.411 42.2305 0.913ZM86.1025 8.826C87.491 9.818 89.4692 12.307 90.4982 14.358C93.2751 19.892 92.0704 24.483 86.5155 29.533C82.6045 33.089 82.0633 34.093 82.0633 37.79C82.0633 41.801 81.9199 42 79.0339 42C76.1802 42 76.0044 41.772 76.0044 38.055C76.0044 34.645 75.3208 33.444 70.9554 29.189C66.4931 24.839 65.9064 23.781 65.9064 20.084C65.9064 8.812 77.2384 2.495 86.1025 8.826ZM19.4554 13C19.4554 15.762 19.1747 16 15.9211 16C12.6675 16 12.3868 15.762 12.3868 13C12.3868 10.238 12.6675 10 15.9211 10C19.1747 10 19.4554 10.238 19.4554 13ZM48.665 23.31C48.7357 25.957 48.5196 26.103 44.953 25.81C41.6136 25.537 41.1874 25.204 41.3419 23C41.4379 21.625 42.2972 18.7 43.2494 16.5L44.9823 12.5L46.7858 16.5C47.7784 18.7 48.6236 21.765 48.665 23.31ZM75.9388 15.67C74.7836 18.68 75.4511 24.543 77.0627 25.529C77.6009 25.859 78.9682 25.838 80.1002 25.482C81.9037 24.915 82.1218 24.133 81.8583 19.168C81.5937 14.16 81.2938 13.463 79.2883 13.181C77.5807 12.941 76.7497 13.558 75.9388 15.67ZM48.7397 37V42H44.7005H40.6613V37.667C40.6613 32.458 41.042 32 45.3741 32H48.7397V37ZM92.9702 52.75C94.495 56.083 94.7191 61.922 94.9827 105.25L95.2806 154H73.8616C62.0813 154 53.0147 154 53.0147 154H52.0049H50.9951H48.9755H46.451L46.2152 150.095L45.7103 134.297L45.2054 118.5L33.8451 118.217L22.4848 117.934V104.167C22.4848 94.793 22.0981 90.017 21.2731 89.2C20.5874 88.521 17.3015 88 13.6995 88C10.2006 88 7.33778 87.769 7.33778 87.487C7.33778 87.205 8.25064 83.718 9.36749 79.737C10.4833 75.757 12.0697 68.368 12.8917 63.317C13.7147 58.266 14.9194 52.979 15.5687 51.567L16.7502 49H54.0028H91.2545L92.9702 52.75ZM26.4978 67.049C23.9026 71.85 30.0463 80.251 37.1129 81.563C45.57 83.135 55.7175 72.299 51.3016 66.412C49.387 63.86 46.8443 65.392 45.3276 70.011C43.2484 76.341 34.4853 76.535 32.9767 70.284C31.668 64.865 28.5255 63.296 26.4978 67.049Z" fill="black"/>
</svg>
